<svg xmlns="http://www.w3.org/2000/svg" viewBox="0 0 62 62"><path d="M0,10A10,10,0,0,1,10,0H52A10,10,0,0,1,62,10V52A10,10,0,0,1,52,62H10A10,10,0,0,1,0,52Z" style="fill:#14f5bf"/><path d="M20.72,33.83l1.4,8L43.4,38.06l-1.41-8s4-3.44,3.18-7.87-4.64-5.58-9.07-4.8c-.31-1.77-3.6-4.85-8-4.07s-6.47,4.8-6.15,6.57c-3.55.63-7.67,3.18-6.89,7.61S20.72,33.83,20.72,33.83Z" style="fill:none;stroke:#1d2025;stroke-linecap:round;stroke-linejoin:round;stroke-width:2.5999999046325684px"/><path d="M31,40.25l-1.25-7.09m-7.62,8.65L43.4,38.06l1.25,7.09L23.37,48.91Zm15.07-2.65L35,26.75Z" style="fill:none;stroke:#1d2025;stroke-linecap:round;stroke-linejoin:round;stroke-width:2.5999999046325684px"/></svg>